<?xml version="1.0" encoding="utf-8"?>
<svg id="master-artboard" xmlns="http://www.w3.org/2000/svg" viewBox="0 0 500 500" width="500px" height="500px"><defs><style id="ee-google-fonts">@import url(https://fonts.googleapis.com/css?family=Poppins:300,400,500,600,700);</style></defs><rect id="ee-background" x="0" y="0" width="500" height="500" style="fill: white; fill-opacity: 0; pointer-events: none;"/><g transform="matrix(2.5749129611186694, 0, 0, 2.5749129611186694, -33.80166516135131, -1903.1371301895517)"><g id="Layer_2_27_" transform="matrix(1, 0, 0, 1, 0, 0)">
	<g id="Layer_1-2_25_">
		<g>
			<path class="st0" d="M163,887H57V781h106V887z M63,881h94v-94H63V881z" style="fill: rgb(51, 51, 51);"/>
		</g>
	</g>
</g></g><path d="M 171.77366638183594 183.42001342773438 C 171.77366638183594 183.42001342773438 172.06700134277344 183.12001037597656 172.65367126464844 182.52001953125 C 173.23367309570312 181.92001342773438 173.52366638183594 180.63668823242188 173.52366638183594 178.67001342773438 C 173.52366638183594 176.70335388183594 172.94033813476562 175.12335205078125 171.77366638183594 173.93002319335938 C 170.6070098876953 172.73667907714844 169.11700439453125 172.1400146484375 167.3036651611328 172.1400146484375 C 165.48367309570312 172.1400146484375 163.98699951171875 172.73667907714844 162.8136749267578 173.93002319335938 C 161.6336669921875 175.12335205078125 161.04367065429688 176.70335388183594 161.04367065429688 178.67001342773438 C 161.04367065429688 180.63668823242188 161.6370086669922 182.2200164794922 162.82366943359375 183.42001342773438 C 164.01034545898438 184.62001037597656 165.5070037841797 185.2200164794922 167.3136749267578 185.2200164794922 C 169.12033081054688 185.2200164794922 170.6070098876953 184.62001037597656 171.77366638183594 183.42001342773438 M 167.3136749267578 187.17001342773438 C 167.3136749267578 187.17001342773438 166.71701049804688 187.17001342773438 165.52366638183594 187.17001342773438 C 164.33033752441406 187.17001342773438 162.91700744628906 186.36668395996094 161.28367614746094 184.760009765625 C 159.65699768066406 183.1466827392578 158.8436737060547 181.11334228515625 158.8436737060547 178.66001892089844 C 158.8436737060547 176.20668029785156 159.65699768066406 174.183349609375 161.28367614746094 172.5900115966797 C 162.91700744628906 170.99667358398438 164.927001953125 170.20001220703125 167.3136749267578 170.20001220703125 C 169.69366455078125 170.20001220703125 171.69700622558594 170.99667358398438 173.32366943359375 172.5900115966797 C 174.95033264160156 174.183349609375 175.763671875 176.21002197265625 175.763671875 178.67001342773438 C 175.763671875 181.13668823242188 174.95033264160156 183.17001342773438 173.32366943359375 184.77001953125 C 171.69700622558594 186.37001037597656 169.69366455078125 187.17001342773438 167.3136749267578 187.17001342773438 ZM 187.9038848876953 173.82000732421875 L 190.08389282226562 173.82000732421875 L 190.08389282226562 187.00001525878906 L 187.9038848876953 187.00001525878906 L 187.9038848876953 184.8900146484375 C 187.02389526367188 186.44334411621094 185.59056091308594 187.2200164794922 183.6038818359375 187.2200164794922 C 182.1505584716797 187.2200164794922 180.9338836669922 186.7333526611328 179.95388793945312 185.760009765625 C 178.98056030273438 184.79335021972656 178.49388122558594 183.42335510253906 178.49388122558594 181.65000915527344 L 178.49388122558594 173.82000732421875 L 180.6538848876953 173.82000732421875 L 180.6538848876953 181.29000854492188 C 180.6538848876953 182.6033477783203 180.9772186279297 183.606689453125 181.62388610839844 184.30001831054688 C 182.2705535888672 184.99334716796875 183.1538848876953 185.3400115966797 184.27389526367188 185.3400115966797 C 185.39389038085938 185.3400115966797 186.28054809570312 184.99334716796875 186.9338836669922 184.30001831054688 C 187.58055114746094 183.606689453125 187.9038848876953 182.6033477783203 187.9038848876953 181.29000854492188 L 187.9038848876953 173.82000732421875 ZM 199.7328643798828 185.2200164794922 L 201.53286743164062 185.2200164794922 L 201.53286743164062 187.00001525878906 L 199.3228759765625 187.00001525878906 C 197.0362091064453 187.00001525878906 195.8928680419922 185.87335205078125 195.8928680419922 183.62001037597656 L 195.8928680419922 175.6000213623047 L 194.19287109375 175.6000213623047 L 194.19287109375 173.82000732421875 L 195.8928680419922 173.82000732421875 L 195.8928680419922 170.5600128173828 L 198.10287475585938 170.5600128173828 L 198.10287475585938 173.82000732421875 L 201.5128631591797 173.82000732421875 L 201.5128631591797 175.6000213623047 L 198.10287475585938 175.6000213623047 L 198.10287475585938 183.62001037597656 C 198.10287475585938 184.20668029785156 198.22286987304688 184.62001037597656 198.46287536621094 184.86001586914062 C 198.70286560058594 185.1000213623047 199.12620544433594 185.2200164794922 199.7328643798828 185.2200164794922 ZM 205.36801147460938 187.00001525878906 L 205.36801147460938 169.24002075195312 L 207.54800415039062 169.24002075195312 L 207.54800415039062 187.00001525878906 L 205.36801147460938 187.00001525878906 ZM 218.59555053710938 187.2200164794922 C 216.70887756347656 187.2200164794922 215.17221069335938 186.59335327148438 213.9855499267578 185.3400115966797 C 212.8055419921875 184.09335327148438 212.21554565429688 182.44668579101562 212.21554565429688 180.40000915527344 C 212.21554565429688 178.3533477783203 212.81553649902344 176.71002197265625 214.0155487060547 175.4700164794922 C 215.21554565429688 174.23001098632812 216.7688751220703 173.61001586914062 218.675537109375 173.61001586914062 C 220.58888244628906 173.61001586914062 222.12554931640625 174.19668579101562 223.28553771972656 175.37001037597656 C 224.44554138183594 176.55001831054688 225.02554321289062 178.05001831054688 225.02554321289062 179.87001037597656 C 225.02554321289062 180.33668518066406 224.99554443359375 180.77001953125 224.935546875 181.17001342773438 L 214.44554138183594 181.17001342773438 C 214.5055389404297 182.4833526611328 214.91554260253906 183.52001953125 215.675537109375 184.28001403808594 C 216.435546875 185.04000854492188 217.40887451171875 185.42001342773438 218.59555053710938 185.42001342773438 C 219.48887634277344 185.42001342773438 220.24554443359375 185.2200164794922 220.86553955078125 184.8200225830078 C 221.4788818359375 184.42001342773438 221.9288787841797 183.8900146484375 222.21554565429688 183.23001098632812 L 224.57554626464844 183.23001098632812 C 224.15554809570312 184.3833465576172 223.43887329101562 185.33668518066406 222.425537109375 186.0900115966797 C 221.40554809570312 186.84335327148438 220.12887573242188 187.2200164794922 218.59555053710938 187.2200164794922 M 222.74554443359375 179.58001708984375 C 222.73220825195312 178.32000732421875 222.33221435546875 177.3100128173828 221.54554748535156 176.55001831054688 C 220.7655487060547 175.79000854492188 219.79554748535156 175.41001892089844 218.6355438232422 175.41001892089844 C 217.4755401611328 175.41001892089844 216.50888061523438 175.78001403808594 215.7355499267578 176.52001953125 C 214.9688720703125 177.2666778564453 214.54554748535156 178.28668212890625 214.46554565429688 179.58001708984375 L 222.74554443359375 179.58001708984375 ZM 232.5580596923828 185.2200164794922 L 234.35806274414062 185.2200164794922 L 234.35806274414062 187.00001525878906 L 232.1480712890625 187.00001525878906 C 229.8614044189453 187.00001525878906 228.7180633544922 185.87335205078125 228.7180633544922 183.62001037597656 L 228.7180633544922 175.6000213623047 L 227.01806640625 175.6000213623047 L 227.01806640625 173.82000732421875 L 228.7180633544922 173.82000732421875 L 228.7180633544922 170.5600128173828 L 230.92807006835938 170.5600128173828 L 230.92807006835938 173.82000732421875 L 234.3380584716797 173.82000732421875 L 234.3380584716797 175.6000213623047 L 230.92807006835938 175.6000213623047 L 230.92807006835938 183.62001037597656 C 230.92807006835938 184.20668029785156 231.04806518554688 184.62001037597656 231.28807067871094 184.86001586914062 C 231.52806091308594 185.1000213623047 231.95140075683594 185.2200164794922 232.5580596923828 185.2200164794922 ZM 161.48367309570312 203.61000061035156 C 161.48367309570312 204.2166748046875 161.6503448486328 204.72000122070312 161.98367309570312 205.1199951171875 C 162.31700134277344 205.52000427246094 162.75033569335938 205.81666564941406 163.28367614746094 206.010009765625 C 163.81033325195312 206.20333862304688 164.39700317382812 206.3699951171875 165.04367065429688 206.510009765625 C 165.69033813476562 206.65667724609375 166.33700561523438 206.82000732421875 166.98367309570312 207 C 167.6370086669922 207.18667602539062 168.2270050048828 207.42333984375 168.75367736816406 207.7100067138672 C 169.28033447265625 207.99667358398438 169.71034240722656 208.4300079345703 170.04367065429688 209.010009765625 C 170.3836669921875 209.58334350585938 170.5536651611328 210.2933349609375 170.5536651611328 211.13999938964844 C 170.5536651611328 212.44000244140625 170.0570068359375 213.57000732421875 169.0636749267578 214.52999877929688 C 168.07034301757812 215.49000549316406 166.73033142089844 215.97000122070312 165.04367065429688 215.97000122070312 C 163.3570098876953 215.97000122070312 161.98367309570312 215.5800018310547 160.92367553710938 214.8000030517578 C 159.87033081054688 214.02667236328125 159.3436737060547 212.97666931152344 159.3436737060547 211.65000915527344 L 161.67367553710938 211.65000915527344 C 161.73367309570312 212.40333557128906 162.03367614746094 213.010009765625 162.57366943359375 213.47000122070312 C 163.1070098876953 213.93667602539062 163.90367126464844 214.1699981689453 164.9636688232422 214.1699981689453 C 166.01699829101562 214.1699981689453 166.8570098876953 213.89666748046875 167.48367309570312 213.35000610351562 C 168.10366821289062 212.80999755859375 168.41366577148438 212.17333984375 168.41366577148438 211.44000244140625 C 168.41366577148438 210.7133331298828 168.24700927734375 210.15333557128906 167.91366577148438 209.760009765625 C 167.57366943359375 209.3733367919922 167.1403350830078 209.08334350585938 166.61367797851562 208.88999938964844 C 166.08700561523438 208.69667053222656 165.50033569335938 208.53334045410156 164.85366821289062 208.40000915527344 C 164.20700073242188 208.260009765625 163.5570068359375 208.0933380126953 162.90367126464844 207.90000915527344 C 162.2570037841797 207.7133331298828 161.6703338623047 207.47000122070312 161.1436767578125 207.1699981689453 C 160.61700439453125 206.8766632080078 160.1836700439453 206.43667602539062 159.8436737060547 205.85000610351562 C 159.51034545898438 205.27000427246094 159.3436737060547 204.5466766357422 159.3436737060547 203.6800079345703 C 159.3436737060547 202.27333068847656 159.8436737060547 201.13999938964844 160.8436737060547 200.27999877929688 C 161.8436737060547 199.42666625976562 163.14700317382812 199 164.75367736816406 199 C 166.36033630371094 199 167.6403350830078 199.3733367919922 168.5936737060547 200.1199951171875 C 169.5469970703125 200.86000061035156 170.0970001220703 201.8866729736328 170.24366760253906 203.1999969482422 L 167.8136749267578 203.1999969482422 C 167.75367736816406 202.5466766357422 167.44700622558594 201.98666381835938 166.8936767578125 201.52000427246094 C 166.34033203125 201.05332946777344 165.5970001220703 200.82000732421875 164.66366577148438 200.82000732421875 C 163.7236785888672 200.82000732421875 162.95700073242188 201.05667114257812 162.36367797851562 201.52999877929688 C 161.77700805664062 202.0033416748047 161.48367309570312 202.69667053222656 161.48367309570312 203.61000061035156 ZM 179.5498504638672 214.02000427246094 L 181.349853515625 214.02000427246094 L 181.349853515625 215.8000030517578 L 179.13986206054688 215.8000030517578 C 176.8531951904297 215.8000030517578 175.70985412597656 214.67333984375 175.70985412597656 212.4199981689453 L 175.70985412597656 204.40000915527344 L 174.00985717773438 204.40000915527344 L 174.00985717773438 202.6199951171875 L 175.70985412597656 202.6199951171875 L 175.70985412597656 199.36000061035156 L 177.91986083984375 199.36000061035156 L 177.91986083984375 202.6199951171875 L 181.32984924316406 202.6199951171875 L 181.32984924316406 204.40000915527344 L 177.91986083984375 204.40000915527344 L 177.91986083984375 212.4199981689453 C 177.91986083984375 213.0066680908203 178.03985595703125 213.4199981689453 178.2798614501953 213.66000366210938 C 178.5198516845703 213.90000915527344 178.9431915283203 214.02000427246094 179.5498504638672 214.02000427246094 ZM 190.80499267578125 214.22000122070312 C 190.80499267578125 214.22000122070312 191.11166381835938 214.22000122070312 191.72499084472656 214.22000122070312 C 192.3383331298828 214.22000122070312 193.09832763671875 213.77333068847656 194.00498962402344 212.8800048828125 C 194.9116668701172 211.9933319091797 195.364990234375 210.76666259765625 195.364990234375 209.1999969482422 C 195.364990234375 207.63333129882812 194.93165588378906 206.41000366210938 194.06500244140625 205.52999877929688 C 193.19833374023438 204.65000915527344 192.14498901367188 204.2100067138672 190.90499877929688 204.2100067138672 C 189.6649932861328 204.2100067138672 188.6316680908203 204.65000915527344 187.80499267578125 205.52999877929688 C 186.97166442871094 206.41000366210938 186.55499267578125 207.6366729736328 186.55499267578125 209.2100067138672 C 186.55499267578125 210.79000854492188 186.9550018310547 212.02000427246094 187.75498962402344 212.90000915527344 C 188.55499267578125 213.77999877929688 189.5716552734375 214.22000122070312 190.80499267578125 214.22000122070312 M 186.13499450683594 214.13999938964844 C 186.13499450683594 214.13999938964844 185.8316650390625 213.8300018310547 185.22499084472656 213.2100067138672 C 184.625 212.58334350585938 184.3249969482422 211.2533416748047 184.3249969482422 209.22000122070312 C 184.3249969482422 207.19332885742188 184.9550018310547 205.5500030517578 186.21499633789062 204.29000854492188 C 187.48165893554688 203.0366668701172 189.0649871826172 202.41000366210938 190.96499633789062 202.41000366210938 C 192.8716583251953 202.41000366210938 194.4583282470703 203.0366668701172 195.72499084472656 204.29000854492188 C 196.98500061035156 205.5500030517578 197.614990234375 207.19000244140625 197.614990234375 209.2100067138672 C 197.614990234375 211.23666381835938 196.95498657226562 212.8766632080078 195.63499450683594 214.1300048828125 C 194.31500244140625 215.38999938964844 192.70498657226562 216.02000427246094 190.80499267578125 216.02000427246094 C 188.89833068847656 216.02000427246094 187.34165954589844 215.39334106445312 186.13499450683594 214.13999938964844 ZM 203.0376434326172 202.6199951171875 L 203.0376434326172 204.86000061035156 C 203.82431030273438 203.22666931152344 205.16098022460938 202.41000366210938 207.0476531982422 202.41000366210938 L 207.0476531982422 204.69000244140625 L 206.47764587402344 204.69000244140625 C 205.35765075683594 204.69000244140625 204.5043182373047 204.98001098632812 203.9176483154297 205.55999755859375 C 203.3309783935547 206.14666748046875 203.0376434326172 207.16000366210938 203.0376434326172 208.60000610351562 L 203.0376434326172 215.8000030517578 L 200.85765075683594 215.8000030517578 L 200.85765075683594 202.6199951171875 L 203.0376434326172 202.6199951171875 ZM 216.55502319335938 216.02000427246094 C 214.66835021972656 216.02000427246094 213.13168334960938 215.39334106445312 211.9450225830078 214.13999938964844 C 210.7650146484375 212.89334106445312 210.17501831054688 211.24667358398438 210.17501831054688 209.1999969482422 C 210.17501831054688 207.15333557128906 210.77500915527344 205.510009765625 211.9750213623047 204.27000427246094 C 213.17501831054688 203.02999877929688 214.7283477783203 202.41000366210938 216.635009765625 202.41000366210938 C 218.54835510253906 202.41000366210938 220.08502197265625 202.99667358398438 221.24501037597656 204.1699981689453 C 222.40501403808594 205.35000610351562 222.98501586914062 206.85000610351562 222.98501586914062 208.6699981689453 C 222.98501586914062 209.1366729736328 222.95501708984375 209.57000732421875 222.89501953125 209.97000122070312 L 212.40501403808594 209.97000122070312 C 212.4650115966797 211.28334045410156 212.87501525878906 212.32000732421875 213.635009765625 213.0800018310547 C 214.39501953125 213.83999633789062 215.36834716796875 214.22000122070312 216.55502319335938 214.22000122070312 C 217.44834899902344 214.22000122070312 218.20501708984375 214.02000427246094 218.82501220703125 213.62001037597656 C 219.4383544921875 213.22000122070312 219.8883514404297 212.69000244140625 220.17501831054688 212.02999877929688 L 222.53501892089844 212.02999877929688 C 222.11502075195312 213.18333435058594 221.39834594726562 214.1366729736328 220.385009765625 214.88999938964844 C 219.36502075195312 215.64334106445312 218.08834838867188 216.02000427246094 216.55502319335938 216.02000427246094 M 220.70501708984375 208.3800048828125 C 220.69168090820312 207.1199951171875 220.29168701171875 206.11000061035156 219.50502014160156 205.35000610351562 C 218.7250213623047 204.58999633789062 217.75502014160156 204.2100067138672 216.5950164794922 204.2100067138672 C 215.4350128173828 204.2100067138672 214.46835327148438 204.5800018310547 213.6950225830078 205.32000732421875 C 212.9283447265625 206.06666564941406 212.50502014160156 207.086669921875 212.42501831054688 208.3800048828125 L 220.70501708984375 208.3800048828125 Z" transform="matrix(2.5742688179016113, 0, 0, 2.5742688179016113, -259.14556884765625, -323.5130920410156)" style="fill: rgb(51, 51, 51); white-space: pre; color: rgb(51, 51, 51);"/><path d="M 290.21337890625 268.88812255859375" style="fill: rgb(51, 51, 51); fill-opacity: 1; stroke: rgb(0, 0, 0); stroke-opacity: 1; stroke-width: 0; paint-order: fill;"/></svg>